<svg xmlns="http://www.w3.org/2000/svg" width="820" height="500" viewBox="0 0 820 500">
<defs>
<radialGradient id="bg" cx="30%" cy="34%" r="90%"><stop offset="0%" stop-color="#2a2010"/><stop offset="48%" stop-color="#181206"/><stop offset="100%" stop-color="#05030a"/></radialGradient>
<radialGradient id="vig" cx="50%" cy="50%" r="72%"><stop offset="62%" stop-color="#000000" stop-opacity="0"/><stop offset="100%" stop-color="#000000" stop-opacity="0.72"/></radialGradient>
<linearGradient id="frame" x1="0" y1="0" x2="1" y2="1"><stop offset="0%" stop-color="#f6dd92"/><stop offset="45%" stop-color="#E8C45A"/><stop offset="55%" stop-color="#9c7d2a"/><stop offset="100%" stop-color="#f6dd92"/></linearGradient>
<linearGradient id="poly" x1="0" y1="0" x2="0.7" y2="1"><stop offset="0%" stop-color="#3FB950" stop-opacity="0.92"/><stop offset="100%" stop-color="#3FB950" stop-opacity="0.34"/></linearGradient>
<radialGradient id="halo" cx="50%" cy="50%" r="50%"><stop offset="0%" stop-color="#3FB950" stop-opacity="0.34"/><stop offset="68%" stop-color="#3FB950" stop-opacity="0.04"/><stop offset="100%" stop-color="#3FB950" stop-opacity="0"/></radialGradient>
<filter id="glow" x="-60%" y="-60%" width="220%" height="220%"><feGaussianBlur stdDeviation="5" result="b"/><feMerge><feMergeNode in="b"/><feMergeNode in="SourceGraphic"/></feMerge></filter>
<filter id="soft" x="-30%" y="-30%" width="160%" height="160%"><feDropShadow dx="0" dy="2" stdDeviation="2" flood-color="#000" flood-opacity="0.7"/></filter>
<pattern id="halftone" width="9" height="9" patternUnits="userSpaceOnUse" patternTransform="rotate(18)"><circle cx="2" cy="2" r="1" fill="#E8C45A" fill-opacity="0.06"/></pattern>
</defs>
<rect width="820" height="500" rx="17" fill="url(#bg)"/>
<rect width="820" height="500" rx="17" fill="url(#halftone)"/>
<g opacity="0.5" filter="url(#glow)">
<path d="M244,268 L477,235 L477,301 Z" fill="#E8C45A" fill-opacity="0.10"/>
<path d="M244,268 L462,356 L429,413 Z" fill="#3FB950" fill-opacity="0.10"/>
<path d="M244,268 L389,453 L332,486 Z" fill="#E8C45A" fill-opacity="0.10"/>
<path d="M244,268 L277,501 L211,501 Z" fill="#3FB950" fill-opacity="0.10"/>
<path d="M244,268 L156,486 L99,453 Z" fill="#E8C45A" fill-opacity="0.10"/>
<path d="M244,268 L59,413 L26,356 Z" fill="#3FB950" fill-opacity="0.10"/>
<path d="M244,268 L11,301 L11,235 Z" fill="#E8C45A" fill-opacity="0.10"/>
<path d="M244,268 L26,180 L59,123 Z" fill="#3FB950" fill-opacity="0.10"/>
<path d="M244,268 L99,83 L156,50 Z" fill="#E8C45A" fill-opacity="0.10"/>
<path d="M244,268 L211,35 L277,35 Z" fill="#3FB950" fill-opacity="0.10"/>
<path d="M244,268 L332,50 L389,83 Z" fill="#E8C45A" fill-opacity="0.10"/>
<path d="M244,268 L429,123 L462,180 Z" fill="#3FB950" fill-opacity="0.10"/>
</g>
<circle cx="244" cy="268" r="174" fill="url(#halo)"/>
<rect x="6" y="6" width="808" height="488" rx="14" fill="none" stroke="url(#frame)" stroke-width="3.5"/>
<rect x="13" y="13" width="794" height="474" rx="9" fill="none" stroke="#9c7d2a" stroke-width="1" stroke-opacity="0.8"/>
<path d="M14,28 L14,14 L28,14" fill="none" stroke="#E8C45A" stroke-width="2.4"/>
<path d="M806,28 L806,14 L792,14" fill="none" stroke="#E8C45A" stroke-width="2.4"/>
<path d="M14,472 L14,486 L28,486" fill="none" stroke="#E8C45A" stroke-width="2.4"/>
<path d="M806,472 L806,486 L792,486" fill="none" stroke="#E8C45A" stroke-width="2.4"/>
<rect width="820" height="500" rx="17" fill="url(#vig)"/>
<polygon points="244.0,140.0 354.9,204.0 354.9,332.0 244.0,396.0 133.1,332.0 133.1,204.0" fill="none" stroke="#9c7d2a" stroke-opacity="0.55" stroke-width="1"/>
<polygon points="244.0,165.6 332.7,216.8 332.7,319.2 244.0,370.4 155.3,319.2 155.3,216.8" fill="none" stroke="#9c7d2a" stroke-opacity="0.55" stroke-width="1"/>
<polygon points="244.0,191.2 310.5,229.6 310.5,306.4 244.0,344.8 177.5,306.4 177.5,229.6" fill="none" stroke="#9c7d2a" stroke-opacity="0.55" stroke-width="1"/>
<polygon points="244.0,216.8 288.3,242.4 288.3,293.6 244.0,319.2 199.7,293.6 199.7,242.4" fill="none" stroke="#9c7d2a" stroke-opacity="0.55" stroke-width="1"/>
<polygon points="244.0,242.4 266.2,255.2 266.2,280.8 244.0,293.6 221.8,280.8 221.8,255.2" fill="none" stroke="#9c7d2a" stroke-opacity="0.55" stroke-width="1"/>
<line x1="244" y1="268" x2="244.0" y2="140.0" stroke="#9c7d2a" stroke-opacity="0.5" stroke-width="1"/>
<line x1="244" y1="268" x2="354.9" y2="204.0" stroke="#9c7d2a" stroke-opacity="0.5" stroke-width="1"/>
<line x1="244" y1="268" x2="354.9" y2="332.0" stroke="#9c7d2a" stroke-opacity="0.5" stroke-width="1"/>
<line x1="244" y1="268" x2="244.0" y2="396.0" stroke="#9c7d2a" stroke-opacity="0.5" stroke-width="1"/>
<line x1="244" y1="268" x2="133.1" y2="332.0" stroke="#9c7d2a" stroke-opacity="0.5" stroke-width="1"/>
<line x1="244" y1="268" x2="133.1" y2="204.0" stroke="#9c7d2a" stroke-opacity="0.5" stroke-width="1"/>
<text x="252" y="144.0" font-size="11" font-style="italic" fill="#E8C45A" fill-opacity="0.55" font-family="'Georgia','Times New Roman',serif">A</text>
<text x="252" y="169.6" font-size="11" font-style="italic" fill="#E8C45A" fill-opacity="0.55" font-family="'Georgia','Times New Roman',serif">B</text>
<text x="252" y="195.2" font-size="11" font-style="italic" fill="#E8C45A" fill-opacity="0.55" font-family="'Georgia','Times New Roman',serif">C</text>
<text x="252" y="220.8" font-size="11" font-style="italic" fill="#E8C45A" fill-opacity="0.55" font-family="'Georgia','Times New Roman',serif">D</text>
<text x="252" y="246.4" font-size="11" font-style="italic" fill="#E8C45A" fill-opacity="0.55" font-family="'Georgia','Times New Roman',serif">E</text>
<polygon points="244.0,140.0 354.9,204.0 299.4,300.0 244.0,319.2 133.1,332.0 133.1,204.0" fill="url(#poly)" filter="url(#glow)"/>
<line x1="244.0" y1="140.0" x2="354.9" y2="204.0" stroke="#3FB950" stroke-width="3"/>
<line x1="354.9" y1="204.0" x2="299.4" y2="300.0" stroke="#8B949E" stroke-width="2" stroke-dasharray="4 4" stroke-opacity="0.92"/>
<line x1="299.4" y1="300.0" x2="244.0" y2="319.2" stroke="#8B949E" stroke-width="2" stroke-dasharray="4 4" stroke-opacity="0.92"/>
<line x1="244.0" y1="319.2" x2="133.1" y2="332.0" stroke="#3FB950" stroke-width="3"/>
<line x1="133.1" y1="332.0" x2="133.1" y2="204.0" stroke="#3FB950" stroke-width="3"/>
<line x1="133.1" y1="204.0" x2="244.0" y2="140.0" stroke="#3FB950" stroke-width="3"/>
<circle cx="244.0" cy="140.0" r="5.5" fill="#F2C200" stroke="#1a1306" stroke-width="1.2"/>
<circle cx="354.9" cy="204.0" r="5.5" fill="#F2C200" stroke="#1a1306" stroke-width="1.2"/>
<circle cx="299.4" cy="300.0" r="5.5" fill="#10100b" stroke="#8B949E" stroke-width="2" stroke-dasharray="2 2"/>
<circle cx="244.0" cy="319.2" r="5.5" fill="#E8702A" stroke="#1a1306" stroke-width="1.2"/>
<circle cx="133.1" cy="332.0" r="5.5" fill="#F2C200" stroke="#1a1306" stroke-width="1.2"/>
<circle cx="133.1" cy="204.0" r="5.5" fill="#F2C200" stroke="#1a1306" stroke-width="1.2"/>
<text x="244.0" y="120.0" font-size="12" font-weight="900" fill="#f3e7c8" text-anchor="middle" font-family="'Arial Black','Helvetica Neue',Arial,sans-serif" letter-spacing="0.4" filter="url(#soft)">Maintenance <tspan fill="#F2C200" font-family="'Georgia','Times New Roman',serif" font-style="italic" font-size="17">A</tspan></text>
<text x="373.9" y="196.0" font-size="12" font-weight="900" fill="#f3e7c8" text-anchor="start" font-family="'Arial Black','Helvetica Neue',Arial,sans-serif" letter-spacing="0.4" filter="url(#soft)">Responsiveness <tspan fill="#F2C200" font-family="'Georgia','Times New Roman',serif" font-style="italic" font-size="17">A</tspan></text>
<text x="373.9" y="348.0" font-size="12" font-weight="900" fill="#f3e7c8" text-anchor="start" font-family="'Arial Black','Helvetica Neue',Arial,sans-serif" letter-spacing="0.4" filter="url(#soft)">Adoption <tspan fill="#8B949E" font-family="'Georgia','Times New Roman',serif" font-style="italic" font-size="17">?</tspan></text>
<text x="244.0" y="424.0" font-size="12" font-weight="900" fill="#f3e7c8" text-anchor="middle" font-family="'Arial Black','Helvetica Neue',Arial,sans-serif" letter-spacing="0.4" filter="url(#soft)">Longevity <tspan fill="#E8702A" font-family="'Georgia','Times New Roman',serif" font-style="italic" font-size="17">D</tspan></text>
<text x="114.1" y="348.0" font-size="12" font-weight="900" fill="#f3e7c8" text-anchor="end" font-family="'Arial Black','Helvetica Neue',Arial,sans-serif" letter-spacing="0.4" filter="url(#soft)">Governance <tspan fill="#F2C200" font-family="'Georgia','Times New Roman',serif" font-style="italic" font-size="17">A</tspan></text>
<text x="114.1" y="196.0" font-size="12" font-weight="900" fill="#f3e7c8" text-anchor="end" font-family="'Arial Black','Helvetica Neue',Arial,sans-serif" letter-spacing="0.4" filter="url(#soft)">Risk <tspan fill="#F2C200" font-family="'Georgia','Times New Roman',serif" font-style="italic" font-size="17">A</tspan></text>
<text x="498" y="60" font-size="13" letter-spacing="5" fill="#E8C45A" font-weight="900" font-family="'Arial Black','Helvetica Neue',Arial,sans-serif" filter="url(#soft)">◆ HEALTH RADAR</text>
<g transform="translate(498,112) skewX(-9)"><text x="2" y="2" font-size="30" font-weight="900" font-style="italic" fill="#000" fill-opacity="0.6" font-family="'Georgia','Times New Roman',serif">Agent Orchestrator</text><text x="0" y="0" font-size="30" font-weight="900" font-style="italic" fill="#fff7e2" font-family="'Georgia','Times New Roman',serif">Agent Orchestrator</text></g>
<line x1="498" y1="124" x2="648" y2="124" stroke="url(#frame)" stroke-width="2"/>
<g opacity="0.85" filter="url(#glow)">
<line x1="568" y1="182" x2="612" y2="182" stroke="#3FB950" stroke-opacity="0.16" stroke-width="3"/>
<line x1="567" y1="189" x2="607" y2="206" stroke="#3FB950" stroke-opacity="0.16" stroke-width="3"/>
<line x1="563" y1="195" x2="594" y2="226" stroke="#3FB950" stroke-opacity="0.16" stroke-width="3"/>
<line x1="557" y1="199" x2="574" y2="239" stroke="#3FB950" stroke-opacity="0.16" stroke-width="3"/>
<line x1="550" y1="200" x2="550" y2="244" stroke="#3FB950" stroke-opacity="0.16" stroke-width="3"/>
<line x1="543" y1="199" x2="526" y2="239" stroke="#3FB950" stroke-opacity="0.16" stroke-width="3"/>
<line x1="537" y1="195" x2="506" y2="226" stroke="#3FB950" stroke-opacity="0.16" stroke-width="3"/>
<line x1="533" y1="189" x2="493" y2="206" stroke="#3FB950" stroke-opacity="0.16" stroke-width="3"/>
<line x1="532" y1="182" x2="488" y2="182" stroke="#3FB950" stroke-opacity="0.16" stroke-width="3"/>
<line x1="533" y1="175" x2="493" y2="158" stroke="#3FB950" stroke-opacity="0.16" stroke-width="3"/>
<line x1="537" y1="169" x2="506" y2="138" stroke="#3FB950" stroke-opacity="0.16" stroke-width="3"/>
<line x1="543" y1="165" x2="526" y2="125" stroke="#3FB950" stroke-opacity="0.16" stroke-width="3"/>
<line x1="550" y1="164" x2="550" y2="120" stroke="#3FB950" stroke-opacity="0.16" stroke-width="3"/>
<line x1="557" y1="165" x2="574" y2="125" stroke="#3FB950" stroke-opacity="0.16" stroke-width="3"/>
<line x1="563" y1="169" x2="594" y2="138" stroke="#3FB950" stroke-opacity="0.16" stroke-width="3"/>
<line x1="567" y1="175" x2="607" y2="158" stroke="#3FB950" stroke-opacity="0.16" stroke-width="3"/>
</g>
<text x="550" y="226" font-size="104" font-weight="900" font-style="italic" text-anchor="middle" fill="#3FB950" stroke="#000" stroke-width="2" paint-order="stroke" font-family="'Georgia','Times New Roman',serif" filter="url(#glow)">B</text>
<text x="498" y="252" font-size="11" letter-spacing="3" fill="#E8C45A" font-family="'Arial Black','Helvetica Neue',Arial,sans-serif" font-weight="900">OVERALL</text>
<text x="498" y="288" font-size="11" font-weight="900" fill="#f3e7c8" font-family="'Arial Black','Helvetica Neue',Arial,sans-serif" letter-spacing="0.4">Maintenance</text>
<rect x="648" y="277" width="118" height="9" rx="2" fill="#241d0e" stroke="#9c7d2a" stroke-opacity="0.5"/>
<rect x="648" y="277" width="118" height="9" rx="2" fill="#F2C200"/>
<text x="779" y="288" font-size="16" font-weight="900" font-style="italic" fill="#F2C200" font-family="'Georgia','Times New Roman',serif" text-anchor="middle">A</text>
<text x="498" y="317" font-size="11" font-weight="900" fill="#f3e7c8" font-family="'Arial Black','Helvetica Neue',Arial,sans-serif" letter-spacing="0.4">Responsiveness</text>
<rect x="648" y="306" width="118" height="9" rx="2" fill="#241d0e" stroke="#9c7d2a" stroke-opacity="0.5"/>
<rect x="648" y="306" width="118" height="9" rx="2" fill="#F2C200"/>
<text x="779" y="317" font-size="16" font-weight="900" font-style="italic" fill="#F2C200" font-family="'Georgia','Times New Roman',serif" text-anchor="middle">A</text>
<text x="498" y="346" font-size="11" font-weight="900" fill="#f3e7c8" font-family="'Arial Black','Helvetica Neue',Arial,sans-serif" letter-spacing="0.4">Adoption</text>
<rect x="648" y="335" width="118" height="9" rx="2" fill="#241d0e" stroke="#9c7d2a" stroke-opacity="0.5"/>
<rect x="648" y="335" width="118" height="9" rx="2" fill="none" stroke="#8B949E" stroke-dasharray="3 3"/>
<text x="779" y="346" font-size="16" font-weight="900" font-style="italic" fill="#8B949E" font-family="'Georgia','Times New Roman',serif" text-anchor="middle">?</text>
<text x="498" y="375" font-size="11" font-weight="900" fill="#f3e7c8" font-family="'Arial Black','Helvetica Neue',Arial,sans-serif" letter-spacing="0.4">Longevity</text>
<rect x="648" y="364" width="118" height="9" rx="2" fill="#241d0e" stroke="#9c7d2a" stroke-opacity="0.5"/>
<rect x="648" y="364" width="47" height="9" rx="2" fill="#E8702A"/>
<text x="779" y="375" font-size="16" font-weight="900" font-style="italic" fill="#E8702A" font-family="'Georgia','Times New Roman',serif" text-anchor="middle">D</text>
<text x="498" y="404" font-size="11" font-weight="900" fill="#f3e7c8" font-family="'Arial Black','Helvetica Neue',Arial,sans-serif" letter-spacing="0.4">Governance</text>
<rect x="648" y="393" width="118" height="9" rx="2" fill="#241d0e" stroke="#9c7d2a" stroke-opacity="0.5"/>
<rect x="648" y="393" width="118" height="9" rx="2" fill="#F2C200"/>
<text x="779" y="404" font-size="16" font-weight="900" font-style="italic" fill="#F2C200" font-family="'Georgia','Times New Roman',serif" text-anchor="middle">A</text>
<text x="498" y="433" font-size="11" font-weight="900" fill="#f3e7c8" font-family="'Arial Black','Helvetica Neue',Arial,sans-serif" letter-spacing="0.4">Risk</text>
<rect x="648" y="422" width="118" height="9" rx="2" fill="#241d0e" stroke="#9c7d2a" stroke-opacity="0.5"/>
<rect x="648" y="422" width="118" height="9" rx="2" fill="#F2C200"/>
<text x="779" y="433" font-size="16" font-weight="900" font-style="italic" fill="#F2C200" font-family="'Georgia','Times New Roman',serif" text-anchor="middle">A</text>
<rect x="498" y="455" width="110" height="21" rx="3" fill="#1b1408" stroke="#E8C45A" stroke-opacity="0.5"/>
<text x="553.0" y="470" font-size="11" font-weight="700" fill="#f3e7c8" text-anchor="middle" font-family="'Arial Black','Helvetica Neue',Arial,sans-serif">Apache-2.0</text>
</svg>