<svg xmlns="http://www.w3.org/2000/svg" width="820" height="500" viewBox="0 0 820 500">
<defs>
<radialGradient id="bg" cx="30%" cy="34%" r="90%"><stop offset="0%" stop-color="#2a2010"/><stop offset="48%" stop-color="#181206"/><stop offset="100%" stop-color="#05030a"/></radialGradient>
<radialGradient id="vig" cx="50%" cy="50%" r="72%"><stop offset="62%" stop-color="#000000" stop-opacity="0"/><stop offset="100%" stop-color="#000000" stop-opacity="0.72"/></radialGradient>
<linearGradient id="frame" x1="0" y1="0" x2="1" y2="1"><stop offset="0%" stop-color="#f6dd92"/><stop offset="45%" stop-color="#E8C45A"/><stop offset="55%" stop-color="#9c7d2a"/><stop offset="100%" stop-color="#f6dd92"/></linearGradient>
<linearGradient id="poly" x1="0" y1="0" x2="0.7" y2="1"><stop offset="0%" stop-color="#F2C200" stop-opacity="0.92"/><stop offset="100%" stop-color="#F2C200" stop-opacity="0.34"/></linearGradient>
<radialGradient id="halo" cx="50%" cy="50%" r="50%"><stop offset="0%" stop-color="#F2C200" stop-opacity="0.34"/><stop offset="68%" stop-color="#F2C200" stop-opacity="0.04"/><stop offset="100%" stop-color="#F2C200" stop-opacity="0"/></radialGradient>
<filter id="glow" x="-60%" y="-60%" width="220%" height="220%"><feGaussianBlur stdDeviation="5" result="b"/><feMerge><feMergeNode in="b"/><feMergeNode in="SourceGraphic"/></feMerge></filter>
<filter id="soft" x="-30%" y="-30%" width="160%" height="160%"><feDropShadow dx="0" dy="2" stdDeviation="2" flood-color="#000" flood-opacity="0.7"/></filter>
<pattern id="halftone" width="9" height="9" patternUnits="userSpaceOnUse" patternTransform="rotate(18)"><circle cx="2" cy="2" r="1" fill="#E8C45A" fill-opacity="0.06"/></pattern>
</defs>
<rect width="820" height="500" rx="17" fill="url(#bg)"/>
<rect width="820" height="500" rx="17" fill="url(#halftone)"/>
<g opacity="0.5" filter="url(#glow)">
<path d="M260,268 L493,235 L493,301 Z" fill="#E8C45A" fill-opacity="0.10"/>
<path d="M260,268 L478,356 L445,413 Z" fill="#F2C200" fill-opacity="0.10"/>
<path d="M260,268 L405,453 L348,486 Z" fill="#E8C45A" fill-opacity="0.10"/>
<path d="M260,268 L293,501 L227,501 Z" fill="#F2C200" fill-opacity="0.10"/>
<path d="M260,268 L172,486 L115,453 Z" fill="#E8C45A" fill-opacity="0.10"/>
<path d="M260,268 L75,413 L42,356 Z" fill="#F2C200" fill-opacity="0.10"/>
<path d="M260,268 L27,301 L27,235 Z" fill="#E8C45A" fill-opacity="0.10"/>
<path d="M260,268 L42,180 L75,123 Z" fill="#F2C200" fill-opacity="0.10"/>
<path d="M260,268 L115,83 L172,50 Z" fill="#E8C45A" fill-opacity="0.10"/>
<path d="M260,268 L227,35 L293,35 Z" fill="#F2C200" fill-opacity="0.10"/>
<path d="M260,268 L348,50 L405,83 Z" fill="#E8C45A" fill-opacity="0.10"/>
<path d="M260,268 L445,123 L478,180 Z" fill="#F2C200" fill-opacity="0.10"/>
</g>
<circle cx="260" cy="268" r="161" fill="url(#halo)"/>
<rect x="6" y="6" width="808" height="488" rx="14" fill="none" stroke="url(#frame)" stroke-width="3.5"/>
<rect x="13" y="13" width="794" height="474" rx="9" fill="none" stroke="#9c7d2a" stroke-width="1" stroke-opacity="0.8"/>
<path d="M14,28 L14,14 L28,14" fill="none" stroke="#E8C45A" stroke-width="2.4"/>
<path d="M806,28 L806,14 L792,14" fill="none" stroke="#E8C45A" stroke-width="2.4"/>
<path d="M14,472 L14,486 L28,486" fill="none" stroke="#E8C45A" stroke-width="2.4"/>
<path d="M806,472 L806,486 L792,486" fill="none" stroke="#E8C45A" stroke-width="2.4"/>
<rect width="820" height="500" rx="17" fill="url(#vig)"/>
<polygon points="260.0,153.0 359.6,210.5 359.6,325.5 260.0,383.0 160.4,325.5 160.4,210.5" fill="none" stroke="#9c7d2a" stroke-opacity="0.55" stroke-width="1"/>
<polygon points="260.0,176.0 339.7,222.0 339.7,314.0 260.0,360.0 180.3,314.0 180.3,222.0" fill="none" stroke="#9c7d2a" stroke-opacity="0.55" stroke-width="1"/>
<polygon points="260.0,199.0 319.8,233.5 319.8,302.5 260.0,337.0 200.2,302.5 200.2,233.5" fill="none" stroke="#9c7d2a" stroke-opacity="0.55" stroke-width="1"/>
<polygon points="260.0,222.0 299.8,245.0 299.8,291.0 260.0,314.0 220.2,291.0 220.2,245.0" fill="none" stroke="#9c7d2a" stroke-opacity="0.55" stroke-width="1"/>
<polygon points="260.0,245.0 279.9,256.5 279.9,279.5 260.0,291.0 240.1,279.5 240.1,256.5" fill="none" stroke="#9c7d2a" stroke-opacity="0.55" stroke-width="1"/>
<line x1="260" y1="268" x2="260.0" y2="153.0" stroke="#9c7d2a" stroke-opacity="0.5" stroke-width="1"/>
<line x1="260" y1="268" x2="359.6" y2="210.5" stroke="#9c7d2a" stroke-opacity="0.5" stroke-width="1"/>
<line x1="260" y1="268" x2="359.6" y2="325.5" stroke="#9c7d2a" stroke-opacity="0.5" stroke-width="1"/>
<line x1="260" y1="268" x2="260.0" y2="383.0" stroke="#9c7d2a" stroke-opacity="0.5" stroke-width="1"/>
<line x1="260" y1="268" x2="160.4" y2="325.5" stroke="#9c7d2a" stroke-opacity="0.5" stroke-width="1"/>
<line x1="260" y1="268" x2="160.4" y2="210.5" stroke="#9c7d2a" stroke-opacity="0.5" stroke-width="1"/>
<text x="268" y="157.0" font-size="11" font-style="italic" fill="#E8C45A" fill-opacity="0.55" font-family="'Georgia','Times New Roman',serif">A</text>
<text x="268" y="180.0" font-size="11" font-style="italic" fill="#E8C45A" fill-opacity="0.55" font-family="'Georgia','Times New Roman',serif">B</text>
<text x="268" y="203.0" font-size="11" font-style="italic" fill="#E8C45A" fill-opacity="0.55" font-family="'Georgia','Times New Roman',serif">C</text>
<text x="268" y="226.0" font-size="11" font-style="italic" fill="#E8C45A" fill-opacity="0.55" font-family="'Georgia','Times New Roman',serif">D</text>
<text x="268" y="249.0" font-size="11" font-style="italic" fill="#E8C45A" fill-opacity="0.55" font-family="'Georgia','Times New Roman',serif">E</text>
<polygon points="260.0,153.0 359.6,210.5 309.8,296.8 260.0,360.0 160.4,325.5 160.4,210.5" fill="url(#poly)" filter="url(#glow)"/>
<line x1="260.0" y1="153.0" x2="359.6" y2="210.5" stroke="#F2C200" stroke-width="3"/>
<line x1="359.6" y1="210.5" x2="309.8" y2="296.8" stroke="#8B949E" stroke-width="2" stroke-dasharray="4 4" stroke-opacity="0.92"/>
<line x1="309.8" y1="296.8" x2="260.0" y2="360.0" stroke="#8B949E" stroke-width="2" stroke-dasharray="4 4" stroke-opacity="0.92"/>
<line x1="260.0" y1="360.0" x2="160.4" y2="325.5" stroke="#F2C200" stroke-width="3"/>
<line x1="160.4" y1="325.5" x2="160.4" y2="210.5" stroke="#F2C200" stroke-width="3"/>
<line x1="160.4" y1="210.5" x2="260.0" y2="153.0" stroke="#F2C200" stroke-width="3"/>
<circle cx="260.0" cy="153.0" r="5.5" fill="#F2C200" stroke="#1a1306" stroke-width="1.2"/>
<circle cx="359.6" cy="210.5" r="5.5" fill="#F2C200" stroke="#1a1306" stroke-width="1.2"/>
<circle cx="309.8" cy="296.8" r="5.5" fill="#10100b" stroke="#8B949E" stroke-width="2" stroke-dasharray="2 2"/>
<circle cx="260.0" cy="360.0" r="5.5" fill="#3FB950" stroke="#1a1306" stroke-width="1.2"/>
<circle cx="160.4" cy="325.5" r="5.5" fill="#F2C200" stroke="#1a1306" stroke-width="1.2"/>
<circle cx="160.4" cy="210.5" r="5.5" fill="#F2C200" stroke="#1a1306" stroke-width="1.2"/>
<text x="260.0" y="135.0" font-size="12" font-weight="900" fill="#f3e7c8" text-anchor="middle" font-family="'Arial Black','Helvetica Neue',Arial,sans-serif" letter-spacing="0.4" filter="url(#soft)">Maintenance <tspan fill="#F2C200" font-family="'Georgia','Times New Roman',serif" font-style="italic" font-size="17">A</tspan></text>
<text x="370.9" y="203.5" font-size="12" font-weight="900" fill="#f3e7c8" text-anchor="start" font-family="'Arial Black','Helvetica Neue',Arial,sans-serif" letter-spacing="0.4" filter="url(#soft)">Responsiveness <tspan fill="#F2C200" font-family="'Georgia','Times New Roman',serif" font-style="italic" font-size="17">A</tspan></text>
<text x="370.9" y="340.5" font-size="12" font-weight="900" fill="#f3e7c8" text-anchor="start" font-family="'Arial Black','Helvetica Neue',Arial,sans-serif" letter-spacing="0.4" filter="url(#soft)">Adoption <tspan fill="#8B949E" font-family="'Georgia','Times New Roman',serif" font-style="italic" font-size="17">?</tspan></text>
<text x="260.0" y="409.0" font-size="12" font-weight="900" fill="#f3e7c8" text-anchor="middle" font-family="'Arial Black','Helvetica Neue',Arial,sans-serif" letter-spacing="0.4" filter="url(#soft)">Longevity <tspan fill="#3FB950" font-family="'Georgia','Times New Roman',serif" font-style="italic" font-size="17">B</tspan></text>
<text x="149.1" y="340.5" font-size="12" font-weight="900" fill="#f3e7c8" text-anchor="end" font-family="'Arial Black','Helvetica Neue',Arial,sans-serif" letter-spacing="0.4" filter="url(#soft)">Bus Factor <tspan fill="#F2C200" font-family="'Georgia','Times New Roman',serif" font-style="italic" font-size="17">A</tspan></text>
<text x="149.1" y="203.5" font-size="12" font-weight="900" fill="#f3e7c8" text-anchor="end" font-family="'Arial Black','Helvetica Neue',Arial,sans-serif" letter-spacing="0.4" filter="url(#soft)">Permissiveness <tspan fill="#F2C200" font-family="'Georgia','Times New Roman',serif" font-style="italic" font-size="17">A</tspan></text>
<text x="498" y="60" font-size="13" letter-spacing="5" fill="#E8C45A" font-weight="900" font-family="'Arial Black','Helvetica Neue',Arial,sans-serif" filter="url(#soft)">◆ HEALTH RADAR</text>
<g transform="translate(498,112) skewX(-9)"><text x="2" y="2" font-size="30" font-weight="900" font-style="italic" fill="#000" fill-opacity="0.6" font-family="'Georgia','Times New Roman',serif">Mem0</text><text x="0" y="0" font-size="30" font-weight="900" font-style="italic" fill="#fff7e2" font-family="'Georgia','Times New Roman',serif">Mem0</text></g>
<line x1="498" y1="124" x2="648" y2="124" stroke="url(#frame)" stroke-width="2"/>
<g opacity="0.85" filter="url(#glow)">
<line x1="568" y1="182" x2="612" y2="182" stroke="#F2C200" stroke-opacity="0.16" stroke-width="3"/>
<line x1="567" y1="189" x2="607" y2="206" stroke="#F2C200" stroke-opacity="0.16" stroke-width="3"/>
<line x1="563" y1="195" x2="594" y2="226" stroke="#F2C200" stroke-opacity="0.16" stroke-width="3"/>
<line x1="557" y1="199" x2="574" y2="239" stroke="#F2C200" stroke-opacity="0.16" stroke-width="3"/>
<line x1="550" y1="200" x2="550" y2="244" stroke="#F2C200" stroke-opacity="0.16" stroke-width="3"/>
<line x1="543" y1="199" x2="526" y2="239" stroke="#F2C200" stroke-opacity="0.16" stroke-width="3"/>
<line x1="537" y1="195" x2="506" y2="226" stroke="#F2C200" stroke-opacity="0.16" stroke-width="3"/>
<line x1="533" y1="189" x2="493" y2="206" stroke="#F2C200" stroke-opacity="0.16" stroke-width="3"/>
<line x1="532" y1="182" x2="488" y2="182" stroke="#F2C200" stroke-opacity="0.16" stroke-width="3"/>
<line x1="533" y1="175" x2="493" y2="158" stroke="#F2C200" stroke-opacity="0.16" stroke-width="3"/>
<line x1="537" y1="169" x2="506" y2="138" stroke="#F2C200" stroke-opacity="0.16" stroke-width="3"/>
<line x1="543" y1="165" x2="526" y2="125" stroke="#F2C200" stroke-opacity="0.16" stroke-width="3"/>
<line x1="550" y1="164" x2="550" y2="120" stroke="#F2C200" stroke-opacity="0.16" stroke-width="3"/>
<line x1="557" y1="165" x2="574" y2="125" stroke="#F2C200" stroke-opacity="0.16" stroke-width="3"/>
<line x1="563" y1="169" x2="594" y2="138" stroke="#F2C200" stroke-opacity="0.16" stroke-width="3"/>
<line x1="567" y1="175" x2="607" y2="158" stroke="#F2C200" stroke-opacity="0.16" stroke-width="3"/>
</g>
<text x="550" y="226" font-size="104" font-weight="900" font-style="italic" text-anchor="middle" fill="#F2C200" stroke="#000" stroke-width="2" paint-order="stroke" font-family="'Georgia','Times New Roman',serif" filter="url(#glow)">A</text>
<text x="498" y="252" font-size="11" letter-spacing="3" fill="#E8C45A" font-family="'Arial Black','Helvetica Neue',Arial,sans-serif" font-weight="900">OVERALL</text>
<text x="648" y="252" font-size="11" letter-spacing="2" fill="#8B949E" font-family="'Arial Black','Helvetica Neue',Arial,sans-serif" font-weight="900" text-anchor="end">AXES 5/6</text>
<text x="498" y="288" font-size="11" font-weight="900" fill="#f3e7c8" font-family="'Arial Black','Helvetica Neue',Arial,sans-serif" letter-spacing="0.4">Maintenance</text>
<rect x="648" y="277" width="118" height="9" rx="2" fill="#241d0e" stroke="#9c7d2a" stroke-opacity="0.5"/>
<rect x="648" y="277" width="118" height="9" rx="2" fill="#F2C200"/>
<text x="779" y="288" font-size="16" font-weight="900" font-style="italic" fill="#F2C200" font-family="'Georgia','Times New Roman',serif" text-anchor="middle">A</text>
<text x="498" y="317" font-size="11" font-weight="900" fill="#f3e7c8" font-family="'Arial Black','Helvetica Neue',Arial,sans-serif" letter-spacing="0.4">Responsiveness</text>
<rect x="648" y="306" width="118" height="9" rx="2" fill="#241d0e" stroke="#9c7d2a" stroke-opacity="0.5"/>
<rect x="648" y="306" width="118" height="9" rx="2" fill="#F2C200"/>
<text x="779" y="317" font-size="16" font-weight="900" font-style="italic" fill="#F2C200" font-family="'Georgia','Times New Roman',serif" text-anchor="middle">A</text>
<text x="498" y="346" font-size="11" font-weight="900" fill="#f3e7c8" font-family="'Arial Black','Helvetica Neue',Arial,sans-serif" letter-spacing="0.4">Adoption</text>
<rect x="648" y="335" width="118" height="9" rx="2" fill="#241d0e" stroke="#9c7d2a" stroke-opacity="0.5"/>
<rect x="648" y="335" width="118" height="9" rx="2" fill="none" stroke="#8B949E" stroke-dasharray="3 3"/>
<text x="779" y="346" font-size="16" font-weight="900" font-style="italic" fill="#8B949E" font-family="'Georgia','Times New Roman',serif" text-anchor="middle">?</text>
<text x="498" y="375" font-size="11" font-weight="900" fill="#f3e7c8" font-family="'Arial Black','Helvetica Neue',Arial,sans-serif" letter-spacing="0.4">Longevity</text>
<rect x="648" y="364" width="118" height="9" rx="2" fill="#241d0e" stroke="#9c7d2a" stroke-opacity="0.5"/>
<rect x="648" y="364" width="94" height="9" rx="2" fill="#3FB950"/>
<text x="779" y="375" font-size="16" font-weight="900" font-style="italic" fill="#3FB950" font-family="'Georgia','Times New Roman',serif" text-anchor="middle">B</text>
<text x="498" y="404" font-size="11" font-weight="900" fill="#f3e7c8" font-family="'Arial Black','Helvetica Neue',Arial,sans-serif" letter-spacing="0.4">Bus Factor</text>
<rect x="648" y="393" width="118" height="9" rx="2" fill="#241d0e" stroke="#9c7d2a" stroke-opacity="0.5"/>
<rect x="648" y="393" width="118" height="9" rx="2" fill="#F2C200"/>
<text x="779" y="404" font-size="16" font-weight="900" font-style="italic" fill="#F2C200" font-family="'Georgia','Times New Roman',serif" text-anchor="middle">A</text>
<text x="498" y="433" font-size="11" font-weight="900" fill="#f3e7c8" font-family="'Arial Black','Helvetica Neue',Arial,sans-serif" letter-spacing="0.4">Permissiveness</text>
<rect x="648" y="422" width="118" height="9" rx="2" fill="#241d0e" stroke="#9c7d2a" stroke-opacity="0.5"/>
<rect x="648" y="422" width="118" height="9" rx="2" fill="#F2C200"/>
<text x="779" y="433" font-size="16" font-weight="900" font-style="italic" fill="#F2C200" font-family="'Georgia','Times New Roman',serif" text-anchor="middle">A</text>
<rect x="498" y="455" width="110" height="21" rx="3" fill="#1b1408" stroke="#E8C45A" stroke-opacity="0.5"/>
<text x="553.0" y="470" font-size="11" font-weight="700" fill="#f3e7c8" text-anchor="middle" font-family="'Arial Black','Helvetica Neue',Arial,sans-serif">Apache-2.0</text>
</svg>