<svg xmlns="http://www.w3.org/2000/svg" width="820" height="500" viewBox="0 0 820 500">
<defs>
<radialGradient id="bg" cx="30%" cy="34%" r="90%"><stop offset="0%" stop-color="#2a2010"/><stop offset="48%" stop-color="#181206"/><stop offset="100%" stop-color="#05030a"/></radialGradient>
<radialGradient id="vig" cx="50%" cy="50%" r="72%"><stop offset="62%" stop-color="#000000" stop-opacity="0"/><stop offset="100%" stop-color="#000000" stop-opacity="0.72"/></radialGradient>
<linearGradient id="frame" x1="0" y1="0" x2="1" y2="1"><stop offset="0%" stop-color="#f6dd92"/><stop offset="45%" stop-color="#E8C45A"/><stop offset="55%" stop-color="#9c7d2a"/><stop offset="100%" stop-color="#f6dd92"/></linearGradient>
<linearGradient id="poly" x1="0" y1="0" x2="0.7" y2="1"><stop offset="0%" stop-color="#E8702A" stop-opacity="0.92"/><stop offset="100%" stop-color="#E8702A" stop-opacity="0.34"/></linearGradient>
<radialGradient id="halo" cx="50%" cy="50%" r="50%"><stop offset="0%" stop-color="#E8702A" stop-opacity="0.34"/><stop offset="68%" stop-color="#E8702A" stop-opacity="0.04"/><stop offset="100%" stop-color="#E8702A" stop-opacity="0"/></radialGradient>
<filter id="glow" x="-60%" y="-60%" width="220%" height="220%"><feGaussianBlur stdDeviation="5" result="b"/><feMerge><feMergeNode in="b"/><feMergeNode in="SourceGraphic"/></feMerge></filter>
<filter id="soft" x="-30%" y="-30%" width="160%" height="160%"><feDropShadow dx="0" dy="2" stdDeviation="2" flood-color="#000" flood-opacity="0.7"/></filter>
<pattern id="halftone" width="9" height="9" patternUnits="userSpaceOnUse" patternTransform="rotate(18)"><circle cx="2" cy="2" r="1" fill="#E8C45A" fill-opacity="0.06"/></pattern>
</defs>
<rect width="820" height="500" rx="17" fill="url(#bg)"/>
<rect width="820" height="500" rx="17" fill="url(#halftone)"/>
<g opacity="0.5" filter="url(#glow)">
<path d="M264,270 L497,237 L497,303 Z" fill="#E8C45A" fill-opacity="0.10"/>
<path d="M264,270 L482,358 L449,415 Z" fill="#E8702A" fill-opacity="0.10"/>
<path d="M264,270 L409,455 L352,488 Z" fill="#E8C45A" fill-opacity="0.10"/>
<path d="M264,270 L297,503 L231,503 Z" fill="#E8702A" fill-opacity="0.10"/>
<path d="M264,270 L176,488 L119,455 Z" fill="#E8C45A" fill-opacity="0.10"/>
<path d="M264,270 L79,415 L46,358 Z" fill="#E8702A" fill-opacity="0.10"/>
<path d="M264,270 L31,303 L31,237 Z" fill="#E8C45A" fill-opacity="0.10"/>
<path d="M264,270 L46,182 L79,125 Z" fill="#E8702A" fill-opacity="0.10"/>
<path d="M264,270 L119,85 L176,52 Z" fill="#E8C45A" fill-opacity="0.10"/>
<path d="M264,270 L231,37 L297,37 Z" fill="#E8702A" fill-opacity="0.10"/>
<path d="M264,270 L352,52 L409,85 Z" fill="#E8C45A" fill-opacity="0.10"/>
<path d="M264,270 L449,125 L482,182 Z" fill="#E8702A" fill-opacity="0.10"/>
</g>
<circle cx="264" cy="270" r="186" fill="url(#halo)"/>
<rect x="6" y="6" width="808" height="488" rx="14" fill="none" stroke="url(#frame)" stroke-width="3.5"/>
<rect x="13" y="13" width="794" height="474" rx="9" fill="none" stroke="#9c7d2a" stroke-width="1" stroke-opacity="0.8"/>
<path d="M14,28 L14,14 L28,14" fill="none" stroke="#E8C45A" stroke-width="2.4"/>
<path d="M806,28 L806,14 L792,14" fill="none" stroke="#E8C45A" stroke-width="2.4"/>
<path d="M14,472 L14,486 L28,486" fill="none" stroke="#E8C45A" stroke-width="2.4"/>
<path d="M806,472 L806,486 L792,486" fill="none" stroke="#E8C45A" stroke-width="2.4"/>
<rect width="820" height="500" rx="17" fill="url(#vig)"/>
<polygon points="264.0,130.0 385.2,200.0 385.2,340.0 264.0,410.0 142.8,340.0 142.8,200.0" fill="none" stroke="#9c7d2a" stroke-opacity="0.55" stroke-width="1"/>
<polygon points="264.0,158.0 361.0,214.0 361.0,326.0 264.0,382.0 167.0,326.0 167.0,214.0" fill="none" stroke="#9c7d2a" stroke-opacity="0.55" stroke-width="1"/>
<polygon points="264.0,186.0 336.7,228.0 336.7,312.0 264.0,354.0 191.3,312.0 191.3,228.0" fill="none" stroke="#9c7d2a" stroke-opacity="0.55" stroke-width="1"/>
<polygon points="264.0,214.0 312.5,242.0 312.5,298.0 264.0,326.0 215.5,298.0 215.5,242.0" fill="none" stroke="#9c7d2a" stroke-opacity="0.55" stroke-width="1"/>
<polygon points="264.0,242.0 288.2,256.0 288.2,284.0 264.0,298.0 239.8,284.0 239.8,256.0" fill="none" stroke="#9c7d2a" stroke-opacity="0.55" stroke-width="1"/>
<line x1="264" y1="270" x2="264.0" y2="130.0" stroke="#9c7d2a" stroke-opacity="0.5" stroke-width="1"/>
<line x1="264" y1="270" x2="385.2" y2="200.0" stroke="#9c7d2a" stroke-opacity="0.5" stroke-width="1"/>
<line x1="264" y1="270" x2="385.2" y2="340.0" stroke="#9c7d2a" stroke-opacity="0.5" stroke-width="1"/>
<line x1="264" y1="270" x2="264.0" y2="410.0" stroke="#9c7d2a" stroke-opacity="0.5" stroke-width="1"/>
<line x1="264" y1="270" x2="142.8" y2="340.0" stroke="#9c7d2a" stroke-opacity="0.5" stroke-width="1"/>
<line x1="264" y1="270" x2="142.8" y2="200.0" stroke="#9c7d2a" stroke-opacity="0.5" stroke-width="1"/>
<text x="272" y="134.0" font-size="11" font-style="italic" fill="#E8C45A" fill-opacity="0.55" font-family="'Georgia','Times New Roman',serif">A</text>
<text x="272" y="162.0" font-size="11" font-style="italic" fill="#E8C45A" fill-opacity="0.55" font-family="'Georgia','Times New Roman',serif">B</text>
<text x="272" y="190.0" font-size="11" font-style="italic" fill="#E8C45A" fill-opacity="0.55" font-family="'Georgia','Times New Roman',serif">C</text>
<text x="272" y="218.0" font-size="11" font-style="italic" fill="#E8C45A" fill-opacity="0.55" font-family="'Georgia','Times New Roman',serif">D</text>
<text x="272" y="246.0" font-size="11" font-style="italic" fill="#E8C45A" fill-opacity="0.55" font-family="'Georgia','Times New Roman',serif">E</text>
<polygon points="264.0,242.0 288.2,256.0 288.2,284.0 264.0,298.0 203.4,305.0 142.8,200.0" fill="url(#poly)" filter="url(#glow)"/>
<line x1="264.0" y1="242.0" x2="288.2" y2="256.0" stroke="#E8702A" stroke-width="3"/>
<line x1="288.2" y1="256.0" x2="288.2" y2="284.0" stroke="#E8702A" stroke-width="3"/>
<line x1="288.2" y1="284.0" x2="264.0" y2="298.0" stroke="#E8702A" stroke-width="3"/>
<line x1="264.0" y1="298.0" x2="203.4" y2="305.0" stroke="#8B949E" stroke-width="2" stroke-dasharray="4 4" stroke-opacity="0.92"/>
<line x1="203.4" y1="305.0" x2="142.8" y2="200.0" stroke="#8B949E" stroke-width="2" stroke-dasharray="4 4" stroke-opacity="0.92"/>
<line x1="142.8" y1="200.0" x2="264.0" y2="242.0" stroke="#E8702A" stroke-width="3"/>
<circle cx="264.0" cy="242.0" r="5.5" fill="#E5484D" stroke="#1a1306" stroke-width="1.2"/>
<circle cx="288.2" cy="256.0" r="5.5" fill="#E5484D" stroke="#1a1306" stroke-width="1.2"/>
<circle cx="288.2" cy="284.0" r="5.5" fill="#E5484D" stroke="#1a1306" stroke-width="1.2"/>
<circle cx="264.0" cy="298.0" r="5.5" fill="#E5484D" stroke="#1a1306" stroke-width="1.2"/>
<circle cx="203.4" cy="305.0" r="5.5" fill="#10100b" stroke="#8B949E" stroke-width="2" stroke-dasharray="2 2"/>
<circle cx="142.8" cy="200.0" r="5.5" fill="#F2C200" stroke="#1a1306" stroke-width="1.2"/>
<text x="264.0" y="98.0" font-size="17" font-weight="900" fill="#f3e7c8" text-anchor="middle" font-family="'PingFang SC','Hiragino Sans GB','Heiti SC','Microsoft YaHei',sans-serif" letter-spacing="0.5" filter="url(#soft)">破坏力 <tspan fill="#E5484D" font-family="'Georgia','Times New Roman',serif" font-style="italic" font-size="18">E</tspan></text>
<text x="264.0" y="111.0" font-size="8" letter-spacing="1.2" fill="#E8C45A" fill-opacity="0.66" text-anchor="middle" font-family="'PingFang SC','Hiragino Sans GB','Heiti SC','Microsoft YaHei',sans-serif">维护</text>
<text x="406.9" y="182.0" font-size="17" font-weight="900" fill="#f3e7c8" text-anchor="start" font-family="'PingFang SC','Hiragino Sans GB','Heiti SC','Microsoft YaHei',sans-serif" letter-spacing="0.5" filter="url(#soft)">速度 <tspan fill="#E5484D" font-family="'Georgia','Times New Roman',serif" font-style="italic" font-size="18">E</tspan></text>
<text x="406.9" y="195.0" font-size="8" letter-spacing="1.2" fill="#E8C45A" fill-opacity="0.66" text-anchor="start" font-family="'PingFang SC','Hiragino Sans GB','Heiti SC','Microsoft YaHei',sans-serif">响应</text>
<text x="406.9" y="350.0" font-size="17" font-weight="900" fill="#f3e7c8" text-anchor="start" font-family="'PingFang SC','Hiragino Sans GB','Heiti SC','Microsoft YaHei',sans-serif" letter-spacing="0.5" filter="url(#soft)">射程 <tspan fill="#E5484D" font-family="'Georgia','Times New Roman',serif" font-style="italic" font-size="18">E</tspan></text>
<text x="406.9" y="363.0" font-size="8" letter-spacing="1.2" fill="#E8C45A" fill-opacity="0.66" text-anchor="start" font-family="'PingFang SC','Hiragino Sans GB','Heiti SC','Microsoft YaHei',sans-serif">采用</text>
<text x="264.0" y="434.0" font-size="17" font-weight="900" fill="#f3e7c8" text-anchor="middle" font-family="'PingFang SC','Hiragino Sans GB','Heiti SC','Microsoft YaHei',sans-serif" letter-spacing="0.5" filter="url(#soft)">持续力 <tspan fill="#E5484D" font-family="'Georgia','Times New Roman',serif" font-style="italic" font-size="18">E</tspan></text>
<text x="264.0" y="447.0" font-size="8" letter-spacing="1.2" fill="#E8C45A" fill-opacity="0.66" text-anchor="middle" font-family="'PingFang SC','Hiragino Sans GB','Heiti SC','Microsoft YaHei',sans-serif">寿命</text>
<text x="121.1" y="350.0" font-size="17" font-weight="900" fill="#f3e7c8" text-anchor="end" font-family="'PingFang SC','Hiragino Sans GB','Heiti SC','Microsoft YaHei',sans-serif" letter-spacing="0.5" filter="url(#soft)">精密度 <tspan fill="#8B949E" font-family="'Georgia','Times New Roman',serif" font-style="italic" font-size="18">?</tspan></text>
<text x="121.1" y="363.0" font-size="8" letter-spacing="1.2" fill="#E8C45A" fill-opacity="0.66" text-anchor="end" font-family="'PingFang SC','Hiragino Sans GB','Heiti SC','Microsoft YaHei',sans-serif">治理</text>
<text x="121.1" y="182.0" font-size="17" font-weight="900" fill="#f3e7c8" text-anchor="end" font-family="'PingFang SC','Hiragino Sans GB','Heiti SC','Microsoft YaHei',sans-serif" letter-spacing="0.5" filter="url(#soft)">成长性 <tspan fill="#F2C200" font-family="'Georgia','Times New Roman',serif" font-style="italic" font-size="18">A</tspan></text>
<text x="121.1" y="195.0" font-size="8" letter-spacing="1.2" fill="#E8C45A" fill-opacity="0.66" text-anchor="end" font-family="'PingFang SC','Hiragino Sans GB','Heiti SC','Microsoft YaHei',sans-serif">风险</text>
<text x="498" y="58" font-size="13" letter-spacing="6" fill="#E8C45A" font-weight="900" font-family="'PingFang SC','Hiragino Sans GB','Heiti SC','Microsoft YaHei',sans-serif" filter="url(#soft)">◆ 替身能力</text>
<text x="498" y="74" font-size="9" letter-spacing="4" fill="#9c7d2a" font-family="'PingFang SC','Hiragino Sans GB','Heiti SC','Microsoft YaHei',sans-serif">项目健康度</text>
<g transform="translate(498,112) skewX(-9)"><text x="2" y="2" font-size="30" font-weight="900" font-style="italic" fill="#000" fill-opacity="0.6" font-family="'Georgia','Times New Roman',serif">memory-analyzer</text><text x="0" y="0" font-size="30" font-weight="900" font-style="italic" fill="#fff7e2" font-family="'Georgia','Times New Roman',serif">memory-analyzer</text></g>
<line x1="498" y1="124" x2="648" y2="124" stroke="url(#frame)" stroke-width="2"/>
<g opacity="0.85" filter="url(#glow)">
<line x1="568" y1="182" x2="612" y2="182" stroke="#E8702A" stroke-opacity="0.16" stroke-width="3"/>
<line x1="567" y1="189" x2="607" y2="206" stroke="#E8702A" stroke-opacity="0.16" stroke-width="3"/>
<line x1="563" y1="195" x2="594" y2="226" stroke="#E8702A" stroke-opacity="0.16" stroke-width="3"/>
<line x1="557" y1="199" x2="574" y2="239" stroke="#E8702A" stroke-opacity="0.16" stroke-width="3"/>
<line x1="550" y1="200" x2="550" y2="244" stroke="#E8702A" stroke-opacity="0.16" stroke-width="3"/>
<line x1="543" y1="199" x2="526" y2="239" stroke="#E8702A" stroke-opacity="0.16" stroke-width="3"/>
<line x1="537" y1="195" x2="506" y2="226" stroke="#E8702A" stroke-opacity="0.16" stroke-width="3"/>
<line x1="533" y1="189" x2="493" y2="206" stroke="#E8702A" stroke-opacity="0.16" stroke-width="3"/>
<line x1="532" y1="182" x2="488" y2="182" stroke="#E8702A" stroke-opacity="0.16" stroke-width="3"/>
<line x1="533" y1="175" x2="493" y2="158" stroke="#E8702A" stroke-opacity="0.16" stroke-width="3"/>
<line x1="537" y1="169" x2="506" y2="138" stroke="#E8702A" stroke-opacity="0.16" stroke-width="3"/>
<line x1="543" y1="165" x2="526" y2="125" stroke="#E8702A" stroke-opacity="0.16" stroke-width="3"/>
<line x1="550" y1="164" x2="550" y2="120" stroke="#E8702A" stroke-opacity="0.16" stroke-width="3"/>
<line x1="557" y1="165" x2="574" y2="125" stroke="#E8702A" stroke-opacity="0.16" stroke-width="3"/>
<line x1="563" y1="169" x2="594" y2="138" stroke="#E8702A" stroke-opacity="0.16" stroke-width="3"/>
<line x1="567" y1="175" x2="607" y2="158" stroke="#E8702A" stroke-opacity="0.16" stroke-width="3"/>
</g>
<text x="550" y="226" font-size="104" font-weight="900" font-style="italic" text-anchor="middle" fill="#E8702A" stroke="#000" stroke-width="2" paint-order="stroke" font-family="'Georgia','Times New Roman',serif" filter="url(#glow)">D</text>
<text x="498" y="252" font-size="11" letter-spacing="3" fill="#E8C45A" font-family="'PingFang SC','Hiragino Sans GB','Heiti SC','Microsoft YaHei',sans-serif" font-weight="900">总评</text>
<text x="498" y="288" font-size="14" font-weight="900" fill="#f3e7c8" font-family="'PingFang SC','Hiragino Sans GB','Heiti SC','Microsoft YaHei',sans-serif" letter-spacing="0.4">维护</text>
<rect x="648" y="277" width="118" height="9" rx="2" fill="#241d0e" stroke="#9c7d2a" stroke-opacity="0.5"/>
<rect x="648" y="277" width="24" height="9" rx="2" fill="#E5484D"/>
<text x="779" y="288" font-size="16" font-weight="900" font-style="italic" fill="#E5484D" font-family="'Georgia','Times New Roman',serif" text-anchor="middle">E</text>
<text x="498" y="317" font-size="14" font-weight="900" fill="#f3e7c8" font-family="'PingFang SC','Hiragino Sans GB','Heiti SC','Microsoft YaHei',sans-serif" letter-spacing="0.4">响应</text>
<rect x="648" y="306" width="118" height="9" rx="2" fill="#241d0e" stroke="#9c7d2a" stroke-opacity="0.5"/>
<rect x="648" y="306" width="24" height="9" rx="2" fill="#E5484D"/>
<text x="779" y="317" font-size="16" font-weight="900" font-style="italic" fill="#E5484D" font-family="'Georgia','Times New Roman',serif" text-anchor="middle">E</text>
<text x="498" y="346" font-size="14" font-weight="900" fill="#f3e7c8" font-family="'PingFang SC','Hiragino Sans GB','Heiti SC','Microsoft YaHei',sans-serif" letter-spacing="0.4">采用</text>
<rect x="648" y="335" width="118" height="9" rx="2" fill="#241d0e" stroke="#9c7d2a" stroke-opacity="0.5"/>
<rect x="648" y="335" width="24" height="9" rx="2" fill="#E5484D"/>
<text x="779" y="346" font-size="16" font-weight="900" font-style="italic" fill="#E5484D" font-family="'Georgia','Times New Roman',serif" text-anchor="middle">E</text>
<text x="498" y="375" font-size="14" font-weight="900" fill="#f3e7c8" font-family="'PingFang SC','Hiragino Sans GB','Heiti SC','Microsoft YaHei',sans-serif" letter-spacing="0.4">寿命</text>
<rect x="648" y="364" width="118" height="9" rx="2" fill="#241d0e" stroke="#9c7d2a" stroke-opacity="0.5"/>
<rect x="648" y="364" width="24" height="9" rx="2" fill="#E5484D"/>
<text x="779" y="375" font-size="16" font-weight="900" font-style="italic" fill="#E5484D" font-family="'Georgia','Times New Roman',serif" text-anchor="middle">E</text>
<text x="498" y="404" font-size="14" font-weight="900" fill="#f3e7c8" font-family="'PingFang SC','Hiragino Sans GB','Heiti SC','Microsoft YaHei',sans-serif" letter-spacing="0.4">治理</text>
<rect x="648" y="393" width="118" height="9" rx="2" fill="#241d0e" stroke="#9c7d2a" stroke-opacity="0.5"/>
<rect x="648" y="393" width="118" height="9" rx="2" fill="none" stroke="#8B949E" stroke-dasharray="3 3"/>
<text x="779" y="404" font-size="16" font-weight="900" font-style="italic" fill="#8B949E" font-family="'Georgia','Times New Roman',serif" text-anchor="middle">?</text>
<text x="498" y="433" font-size="14" font-weight="900" fill="#f3e7c8" font-family="'PingFang SC','Hiragino Sans GB','Heiti SC','Microsoft YaHei',sans-serif" letter-spacing="0.4">风险</text>
<rect x="648" y="422" width="118" height="9" rx="2" fill="#241d0e" stroke="#9c7d2a" stroke-opacity="0.5"/>
<rect x="648" y="422" width="118" height="9" rx="2" fill="#F2C200"/>
<text x="779" y="433" font-size="16" font-weight="900" font-style="italic" fill="#F2C200" font-family="'Georgia','Times New Roman',serif" text-anchor="middle">A</text>
<rect x="498" y="455" width="59" height="21" rx="3" fill="#1b1408" stroke="#E8C45A" stroke-opacity="0.5"/>
<text x="527.5" y="470" font-size="11" font-weight="700" fill="#f3e7c8" text-anchor="middle" font-family="'PingFang SC','Hiragino Sans GB','Heiti SC','Microsoft YaHei',sans-serif">已归档</text>
<rect x="565" y="455" width="47" height="21" rx="3" fill="#1b1408" stroke="#E8C45A" stroke-opacity="0.5"/>
<text x="588.5" y="470" font-size="11" font-weight="700" fill="#f3e7c8" text-anchor="middle" font-family="'PingFang SC','Hiragino Sans GB','Heiti SC','Microsoft YaHei',sans-serif">MIT</text>
</svg>